<svg xmlns="http://www.w3.org/2000/svg" shape-rendering="crispEdges" viewBox="0 0 24 24" width="720" height="720"><rect width="24" height="24" fill="#6ca0dc"/><rect x="10" y="23" width="1" height="1" fill="#171717"/><rect x="11" y="23" width="1" height="1" fill="#171717"/><rect x="13" y="23" width="1" height="1" fill="#171717"/><rect x="14" y="23" width="1" height="1" fill="#171717"/><rect x="15" y="23" width="1" height="1" fill="#171717"/><rect x="17" y="23" width="1" height="1" fill="#171717"/><rect x="7" y="4" width="10" height="12" fill="#8d5524"/><rect x="9" y="16" width="6" height="3" fill="#8d5524"/><rect x="8" y="3" width="8" height="2" fill="#111111"/><rect x="7" y="4" width="1" height="6" fill="#111111"/><rect x="16" y="4" width="1" height="6" fill="#111111"/><rect x="8" y="8" width="3" height="2" fill="#f4f4f4"/><rect x="13" y="8" width="3" height="2" fill="#f4f4f4"/><rect x="9" y="8" width="1" height="1" fill="#7d5534"/><rect x="14" y="8" width="1" height="1" fill="#7d5534"/><rect x="11" y="10" width="2" height="2" fill="#ba9a95"/><rect x="11" y="13" width="2" height="2" fill="#101010"/><rect x="4" y="18" width="16" height="6" fill="#213547"/><rect x="8" y="18" width="8" height="4" fill="#213547"/><rect x="10" y="18" width="4" height="2" fill="#f0f0f0"/><rect x="11" y="19" width="2" height="5" fill="#6f42c1"/><rect x="11" y="23" width="2" height="1" fill="#6f42c1"/><rect x="3" y="19" width="1" height="5" fill="#000"/><rect x="20" y="19" width="1" height="5" fill="#000"/><rect x="5" y="8" width="2" height="3" fill="#7f8ea3"/><rect x="5" y="7" width="3" height="1" fill="#cfd8e3"/><rect x="6" y="10" width="1" height="2" fill="#cfd8e3"/><rect x="6" y="11" width="3" height="1" fill="#cfd8e3"/><rect x="9" y="11" width="1" height="1" fill="#7f8ea3"/><rect x="15" y="20" width="1" height="1" fill="#f2c94c"/></svg>