<svg xmlns="http://www.w3.org/2000/svg" viewBox="0 0 240 240" width="240" height="240">

    <rect width="240" height="240" rx="32" fill="#0a1628"/>
    <g stroke="#00b4db" stroke-width="0.5" opacity="0.3">
      <line x1="20" y1="20" x2="20" y2="220"/><line x1="38" y1="20" x2="38" y2="220"/><line x1="56" y1="20" x2="56" y2="220"/><line x1="74" y1="20" x2="74" y2="220"/><line x1="92" y1="20" x2="92" y2="220"/><line x1="110" y1="20" x2="110" y2="220"/><line x1="128" y1="20" x2="128" y2="220"/><line x1="146" y1="20" x2="146" y2="220"/><line x1="164" y1="20" x2="164" y2="220"/><line x1="182" y1="20" x2="182" y2="220"/><line x1="200" y1="20" x2="200" y2="220"/><line x1="218" y1="20" x2="218" y2="220"/>
      <line x1="20" y1="20" x2="220" y2="20"/><line x1="20" y1="38" x2="220" y2="38"/><line x1="20" y1="56" x2="220" y2="56"/><line x1="20" y1="74" x2="220" y2="74"/><line x1="20" y1="92" x2="220" y2="92"/><line x1="20" y1="110" x2="220" y2="110"/><line x1="20" y1="128" x2="220" y2="128"/><line x1="20" y1="146" x2="220" y2="146"/><line x1="20" y1="164" x2="220" y2="164"/><line x1="20" y1="182" x2="220" y2="182"/><line x1="20" y1="200" x2="220" y2="200"/><line x1="20" y1="218" x2="220" y2="218"/>
    </g>
    <path d="M60 160 L80 140 L100 150 L120 100 L140 110 L160 70 L180 80" fill="none" stroke="#00b4db" stroke-width="3"/>
    <circle cx="120" cy="100" r="4" fill="#00b4db"/><circle cx="160" cy="70" r="4" fill="#00b4db"/>
  <text x="120" y="212" text-anchor="middle" fill="white" font-size="20" font-weight="bold" font-family="Arial,sans-serif" opacity="0.85">$NEXUS</text>
</svg>