<svg xmlns="http://www.w3.org/2000/svg" shape-rendering="crispEdges" viewBox="0 0 24 24" width="720" height="720"><rect width="24" height="24" fill="#d0b090"/><rect x="7" y="4" width="10" height="12" fill="#63b35f"/><rect x="9" y="16" width="6" height="3" fill="#63b35f"/><rect x="8" y="8" width="3" height="2" fill="#f4f4f4"/><rect x="13" y="8" width="3" height="2" fill="#f4f4f4"/><rect x="9" y="8" width="1" height="1" fill="#7d5534"/><rect x="14" y="8" width="1" height="1" fill="#7d5534"/><rect x="10" y="13" width="4" height="1" fill="#101010"/><rect x="6" y="2" width="12" height="4" fill="#7b5e57"/><rect x="5" y="4" width="1" height="4" fill="#7b5e57"/><rect x="18" y="4" width="1" height="4" fill="#7b5e57"/><rect x="8" y="7" width="3" height="2" fill="#de2b2b"/><rect x="13" y="7" width="3" height="2" fill="#2b6bff"/><rect x="11" y="7" width="2" height="1" fill="#d3d7de"/><rect x="4" y="18" width="16" height="6" fill="#263238"/><rect x="10" y="18" width="4" height="2" fill="#f0f0f0"/><rect x="11" y="19" width="2" height="5" fill="#e53935"/><rect x="11" y="23" width="2" height="1" fill="#e53935"/><rect x="10" y="23" width="1" height="1" fill="#151515"/><rect x="13" y="23" width="1" height="1" fill="#151515"/></svg>